<svg style="position: absolute; width: 0; height: 0; overflow: hidden;" version="1.1" xmlns="http://www.w3.org/2000/svg" xmlns:xlink="http://www.w3.org/1999/xlink">
<defs>
<symbol id="icon-user" viewBox="0 0 32 32">
<title>user</title>
<path d="M15.992 2c3.396 0 6.998 2.86 6.998 4.995v4.997c0 1.924-0.8 5.604-2.945 7.293-0.547 0.43-0.831 1.115-0.749 1.807 0.082 0.692 0.518 1.291 1.151 1.582l8.703 4.127c0.068 0.031 0.834 0.16 0.834 1.23l0.001 1.952-27.984 0.002v-2.029c0-0.795 0.596-1.045 0.835-1.154l8.782-4.145c0.63-0.289 1.065-0.885 1.149-1.573s-0.193-1.37-0.733-1.803c-2.078-1.668-3.046-5.335-3.046-7.287v-4.997c0.001-2.089 3.638-4.995 7.004-4.995zM15.992-0c-4.416 0-9.004 3.686-9.004 6.996v4.997c0 2.184 0.997 6.601 3.793 8.847l-8.783 4.145s-1.998 0.89-1.998 1.999v3.001c0 1.105 0.895 1.999 1.998 1.999h27.986c1.105 0 1.999-0.895 1.999-1.999v-3.001c0-1.175-1.999-1.999-1.999-1.999l-8.703-4.127c2.77-2.18 3.708-6.464 3.708-8.865v-4.997c0-3.31-4.582-6.995-8.998-6.995v0z"></path>
</symbol>
<symbol id="icon-screen-smartphone" viewBox="0 0 32 32">
<title>screen-smartphone</title>
<path d="M22.005 0h-12.009c-1.657 0-3 1.343-3 3v26c0 1.657 1.343 3 3 3h12.009c1.657 0 3-1.343 3-3v-26c0-1.657-1.343-3-3-3zM23.005 29c0 0.552-0.448 1-1 1h-12.009c-0.552 0-1-0.448-1-1v-26c0-0.552 0.448-1 1-1h12.009c0.552 0 1 0.448 1 1v26zM16.002 25.006c-1.102 0-1.995 0.893-1.995 1.994s0.893 1.995 1.995 1.995c1.102 0 1.995-0.894 1.995-1.995s-0.892-1.994-1.995-1.994zM18.002 3h-4c-0.552 0-1 0.448-1 1s0.448 1 1 1h4c0.552 0 1-0.448 1-1s-0.448-1-1-1z"></path>
</symbol>
<symbol id="icon-graduation" viewBox="0 0 32 32">
<title>graduation</title>
<path d="M30.964 21.759v-8.067l0.503-0.265c0.327-0.17 0.533-0.507 0.537-0.876s-0.195-0.709-0.518-0.886l-15.045-8.050c-0.301-0.165-0.665-0.164-0.968 0.003l-14.963 8.060c-0.319 0.178-0.515 0.514-0.513 0.88s0.203 0.7 0.525 0.874l6.574 3.499c-0.082 0.145-0.133 0.311-0.133 0.49v8.462c0 0.285 0.122 0.558 0.335 0.747 0.217 0.192 2.295 1.878 8.648 1.878 6.331 0 8.465-1.593 8.688-1.774 0.233-0.189 0.367-0.474 0.367-0.774v-8.679c0-0.14-0.029-0.274-0.081-0.395l4.044-2.136v7.016c-0.593 0.347-0.995 0.983-0.995 1.719 0 1.105 0.895 2 2 2s2-0.895 2-2c0-0.741-0.407-1.38-1.005-1.725zM23.001 25.387c-0.786 0.378-2.866 1.122-7.055 1.122-4.215 0-6.248-0.792-6.983-1.173v-7.41l6.494 3.457c0.148 0.080 0.312 0.12 0.475 0.12 0.159 0 0.318-0.038 0.463-0.114l6.607-3.489v7.488zM15.939 19.369l-12.863-6.83 12.885-6.905 12.925 6.886z"></path>
</symbol>
<symbol id="icon-emotsmile" viewBox="0 0 32 32">
<title>emotsmile</title>
<path d="M24.415 18.974c-0.508-0.227-1.097 0.002-1.321 0.506-0.020 0.044-2.067 4.506-7.17 4.566-0.031 0-0.063 0.001-0.094 0.001-4.802 0-6.873-4.387-6.959-4.575-0.229-0.5-0.818-0.723-1.322-0.496-0.503 0.227-0.726 0.819-0.499 1.323 0.106 0.236 2.668 5.748 8.776 5.748 0.040 0 0.081-0.001 0.121-0.001 6.371-0.075 8.87-5.521 8.973-5.752 0.227-0.505-0.001-1.096-0.505-1.32zM16 0c-8.837 0-16 7.163-16 16s7.163 16 16 16 16-7.163 16-16-7.163-16-16-16zM16 30c-7.72 0-14-6.28-14-14s6.28-14 14-14 14 6.28 14 14-6.28 14-14 14zM10.984 14.995c1.102 0 1.995-0.893 1.995-1.995s-0.893-1.995-1.995-1.995c-1.102 0-1.995 0.893-1.995 1.995s0.893 1.995 1.995 1.995zM20.984 14.995c1.102 0 1.995-0.893 1.995-1.995s-0.893-1.995-1.995-1.995c-1.102 0-1.995 0.893-1.995 1.995s0.892 1.995 1.995 1.995z"></path>
</symbol>
<symbol id="icon-layers" viewBox="0 0 32 32">
<title>layers</title>
<path d="M0.682 9.431l14.847 8.085c0.149 0.081 0.313 0.122 0.479 0.122 0.163 0 0.326-0.040 0.474-0.12l15.003-8.085c0.327-0.176 0.53-0.52 0.525-0.892s-0.216-0.711-0.547-0.88l-14.848-7.54c-0.283-0.143-0.617-0.144-0.902-0.002l-15.002 7.54c-0.332 0.167-0.545 0.505-0.551 0.877s0.196 0.717 0.521 0.895zM16.161 2.134l12.692 6.446-12.843 6.921-12.693-6.912zM31.292 15.010l-2.968-1.507-2.142 1.155 2.5 1.27-12.842 6.921-12.694-6.912 2.666-1.34-2.136-1.164-3.135 1.575c-0.332 0.167-0.545 0.505-0.551 0.877s0.196 0.717 0.521 0.895l14.847 8.085c0.149 0.081 0.313 0.122 0.479 0.122 0.163 0 0.326-0.040 0.474-0.12l15.003-8.085c0.327-0.176 0.53-0.52 0.525-0.892s-0.215-0.711-0.546-0.88zM31.292 22.010l-2.811-1.382-2.142 1.155 2.344 1.145-12.843 6.921-12.694-6.912 2.478-1.121-2.136-1.164-2.947 1.357c-0.332 0.167-0.545 0.505-0.551 0.877s0.196 0.717 0.521 0.895l14.847 8.085c0.149 0.081 0.313 0.122 0.479 0.122 0.163 0 0.326-0.040 0.475-0.12l15.003-8.085c0.327-0.176 0.53-0.52 0.525-0.892-0.005-0.373-0.215-0.712-0.546-0.88z"></path>
</symbol>
<symbol id="icon-wrench" viewBox="0 0 32 32">
<title>wrench</title>
<path d="M31.449 6.748c-0.337-0.155-0.737-0.096-1.017 0.152l-5.041 4.528-4.551-4.669 4.506-5.204c0.245-0.283 0.305-0.673 0.152-1.016s-0.489-0.553-0.86-0.553h-0.271c-2.785 0-7.593 0.239-9.739 2.417l-0.433 0.43c-2.29 2.337-2.697 6.168-1.49 9.081l-11.54 11.778c-1.556 1.578-1.556 4.135 0 5.713l1.409 1.428c0.778 0.788 1.798 1.183 2.818 1.183s2.040-0.395 2.817-1.183l11.71-11.804c1.107 0.599 2.625 0.989 3.899 0.989 2.043 0 3.98-0.824 5.454-2.32l0.427-0.433c2.331-2.364 2.296-7.416 2.306-9.638 0.001-0.378-0.216-0.721-0.554-0.878zM28.302 15.906l-0.371 0.433c-1.117 1.134-2.578 1.677-4.114 1.677-0.76 0-1.784-0.143-2.476-0.431-0.625-0.259-1.206-0.634-1.725-1.107l-12.818 12.925c-0.376 0.382-0.876 0.592-1.408 0.592s-1.032-0.21-1.409-0.592l-1.408-1.427c-0.777-0.788-0.777-2.070-0.001-2.857l12.524-12.777c-0.42-0.611-0.706-1.278-0.877-1.968h-0.001c-0.482-1.95-0.201-4.644 1.313-6.189l0.431-0.435c1.298-1.317 4.67-1.707 6.537-1.822l-3.668 4.236c-0.328 0.379-0.311 0.95 0.038 1.309l5.798 5.948c0.352 0.362 0.92 0.383 1.299 0.047l4.082-3.676c-0.122 1.98-0.506 4.856-1.748 6.115z"></path>
</symbol>
<symbol id="icon-envolope" viewBox="0 0 32 32">
<title>envolope</title>
<path d="M31.983 7.25c0.031-0.192 0.006-0.39-0.077-0.571-0.252-1.107-1.053-1.679-2.406-1.679h-26c-1.19 0-2.472 0.438-3.103 1.296-0.054 0.042-0.106 0.088-0.153 0.143-0.202 0.232-0.272 0.532-0.227 0.814-0.009 0.081-0.017 0.162-0.017 0.247v16c0 1.657 1.843 3.5 3.5 3.5h26c1.657 0 2.5-1.843 2.5-3.5v-16c0-0.088-0.012-0.166-0.017-0.25zM3.5 7l26.014-0-13.514 10.77-13.459-10.726c0.306-0.056 0.683-0.044 0.959-0.044zM29.5 25h-26c-0.551 0-1.5-0.948-1.5-1.5v-14.326l13.345 10.677c0.188 0.163 0.421 0.244 0.655 0.244s0.467-0.081 0.655-0.244l13.345-10.676v14.326c0 0.552 0.052 1.5-0.5 1.5z"></path>
</symbol>
<symbol id="icon-social-github" viewBox="0 0 32 32">
<title>social-github</title>
<path d="M4.956 16.331c-0.362 0-0.7-0.231-0.813-0.594-0.919-2.869-1.050-7.938 0.919-10.238-0.438-1.663-0.194-3.913 0.612-5.119 0.169-0.25 0.444-0.394 0.75-0.381 2.294 0.1 3.787 1.056 5.1 1.931 1.869-0.488 3.688-0.656 5.844-0.538 0.531 0.031 1.056 0.15 1.519 0.256 0.438 0.1 0.887 0.206 1.15 0.181 0.238-0.025 0.662-0.313 1.006-0.55 0.319-0.219 0.656-0.444 1.006-0.6 1-0.438 1.9-0.637 3.113-0.681 0.469-0.013 0.869 0.35 0.887 0.825s-0.35 0.869-0.825 0.881c-1.006 0.038-1.681 0.181-2.488 0.538-0.206 0.094-0.462 0.263-0.731 0.45-0.531 0.362-1.137 0.775-1.813 0.837-0.544 0.050-1.106-0.075-1.7-0.219-0.413-0.094-0.844-0.194-1.225-0.219-2.106-0.119-3.856 0.063-5.669 0.581-0.238 0.069-0.494 0.031-0.706-0.112l-0.213-0.144c-1.144-0.756-2.225-1.481-3.806-1.675-0.394 1.006-0.444 2.675-0.050 3.663 0.138 0.338 0.037 0.731-0.237 0.963-1.544 1.313-1.738 5.956-0.819 8.838 0.144 0.45-0.106 0.931-0.556 1.075-0.088 0.038-0.175 0.050-0.256 0.050zM11.456 24.769c-0.063 0-0.125-0.006-0.188-0.019-0.463-0.1-0.75-0.556-0.65-1.019l0.056-0.244c0.262-1.188 0.506-2.144 0.794-2.856-3.506-0.731-6.063-2.4-7.275-4.762-0.212-0.419-0.050-0.938 0.369-1.15s0.938-0.050 1.15 0.369c1.094 2.131 3.669 3.575 7.256 4.069 0.344 0.050 0.625 0.3 0.713 0.631 0.088 0.337-0.037 0.694-0.319 0.9-0.181 0.163-0.512 0.844-1.019 3.163l-0.056 0.25c-0.088 0.394-0.438 0.669-0.831 0.669zM9.881 31.025c-0.056 0-0.106-0.006-0.162-0.019-0.463-0.094-0.769-0.525-0.675-0.988 0.156-0.794 0.713-1.125 1.044-1.319 0.225-0.131 0.294-0.181 0.331-0.269 0.194-0.413 0.144-1.481 0.1-2.338-0.019-0.363-0.037-0.731-0.044-1.087-1.981 0.344-4.131 0.45-5.269-1.431-0.225-0.375-0.369-0.756-0.5-1.1-0.15-0.387-0.275-0.725-0.481-0.975-0.3-0.363-0.244-0.9 0.119-1.2s0.9-0.25 1.2 0.119c0.381 0.469 0.581 0.994 0.756 1.456 0.112 0.3 0.219 0.581 0.362 0.819 0.612 1.012 1.95 0.95 4.525 0.431 0.269-0.056 0.544 0.025 0.744 0.206 0.2 0.188 0.3 0.456 0.269 0.725-0.063 0.544-0.025 1.256 0.006 1.944 0.063 1.206 0.119 2.344-0.262 3.15-0.275 0.581-0.719 0.844-1.012 1.012-0.081 0.050-0.206 0.119-0.231 0.15-0.056 0.419-0.412 0.713-0.819 0.713zM22.306 30.862c-0.281 0-0.55-0.137-0.719-0.387-0.069-0.113-0.169-0.181-0.344-0.3-0.275-0.194-0.65-0.456-0.931-1-0.506-0.994-0.425-2.438-0.344-3.962 0.050-0.938 0.1-1.906-0-2.669-0.087-0.644-0.313-0.931-0.625-1.331-0.2-0.262-0.431-0.556-0.613-0.944-0.119-0.256-0.1-0.55 0.038-0.794 0.144-0.244 0.394-0.4 0.675-0.419 3.206-0.238 5.738-1.75 6.956-4.144 0.212-0.419 0.725-0.588 1.15-0.375 0.419 0.213 0.588 0.725 0.375 1.15-1.3 2.569-3.781 4.3-6.919 4.894 0.281 0.413 0.556 0.938 0.663 1.744 0.125 0.919 0.069 1.969 0.012 2.981-0.063 1.175-0.131 2.506 0.163 3.094 0.075 0.15 0.169 0.219 0.381 0.369 0.231 0.156 0.544 0.375 0.8 0.769s0.144 0.925-0.25 1.181c-0.144 0.1-0.306 0.144-0.469 0.144zM27.162 16.156c-0.075 0-0.156-0.012-0.231-0.031-0.456-0.131-0.719-0.6-0.587-1.056 0.944-3.319 0.3-7.631-1.35-9.037-0.269-0.231-0.369-0.6-0.25-0.931 0.4-1.144 0.131-2.862-0.325-3.9-0.188-0.431 0.006-0.938 0.438-1.125s0.938 0.006 1.125 0.438c0.525 1.188 0.869 3.056 0.525 4.613 2.038 2.25 2.438 7.050 1.481 10.412-0.113 0.375-0.45 0.619-0.825 0.619zM19.487 32.013c-0.156 0-0.319-0.044-0.462-0.137-0.156-0.1-0.625-0.4-1.494-1.75-0.394-0.613-0.681-3.662-0.856-9.075-0.012-0.469 0.356-0.869 0.825-0.881s0.869 0.356 0.881 0.825c0.113 3.544 0.375 7.563 0.613 8.25 0.637 0.988 0.938 1.188 0.95 1.194 0.394 0.256 0.512 0.781 0.256 1.181-0.156 0.256-0.431 0.394-0.712 0.394zM13.006 32.013c-0.281 0-0.556-0.137-0.719-0.394-0.256-0.394-0.137-0.925 0.256-1.181 0.012-0.006 0.313-0.206 0.95-1.194 0.238-0.681 0.494-4.706 0.613-8.25 0.012-0.469 0.412-0.844 0.881-0.825 0.469 0.012 0.844 0.413 0.825 0.881-0.175 5.413-0.463 8.469-0.856 9.075-0.869 1.344-1.338 1.65-1.494 1.75-0.137 0.094-0.3 0.137-0.456 0.137z"></path>
</symbol>
</defs>
</svg>
